<svg id="visual" viewBox="0 0 500 500" width="500" height="500" xmlns="http://www.w3.org/2000/svg" xmlns:xlink="http://www.w3.org/1999/xlink" version="1.1"><g stroke-width="1" stroke-linejoin="bevel"><path d="M248.7 245.3L235.3 241.3L254.7 254.7Z" fill="#ba3290" stroke="#ba3290"></path><path d="M235.3 241.3L217.3 282.7L254.7 254.7Z" fill="#873b92" stroke="#873b92"></path><path d="M217.3 282.7L264.7 315.2L254.7 254.7Z" fill="#a13793" stroke="#a13793"></path><path d="M217.3 282.7L245.3 321.2L264.7 315.2Z" fill="#543d88" stroke="#543d88"></path><path d="M273.7 189.8L245.3 196.8L248.7 245.3Z" fill="#e72681" stroke="#e72681"></path><path d="M248.7 245.3L245.3 196.8L235.3 241.3Z" fill="#d22b8a" stroke="#d22b8a"></path><path d="M235.3 241.3L173.8 252.3L217.3 282.7Z" fill="#a13793" stroke="#a13793"></path><path d="M273.7 189.8L248.7 245.3L319.2 225.3Z" fill="#e72681" stroke="#e72681"></path><path d="M203.8 162.8L173.8 252.3L235.3 241.3Z" fill="#003566" stroke="#003566"></path><path d="M217.3 282.7L227.3 351.6L245.3 321.2Z" fill="#6d3d8e" stroke="#6d3d8e"></path><path d="M264.7 315.2L298.2 299.2L254.7 254.7Z" fill="#ba3290" stroke="#ba3290"></path><path d="M173.8 252.3L173.8 296.2L217.3 282.7Z" fill="#203973" stroke="#203973"></path><path d="M117.4 239.3L159.8 260.7L173.8 252.3Z" fill="#003566" stroke="#003566"></path><path d="M173.8 252.3L159.8 260.7L173.8 296.2Z" fill="#3a3c7f" stroke="#3a3c7f"></path><path d="M319.2 225.3L248.7 245.3L254.7 254.7Z" fill="#ba3290" stroke="#ba3290"></path><path d="M245.3 321.2L255.7 340.6L264.7 315.2Z" fill="#203973" stroke="#203973"></path><path d="M264.7 315.2L292.2 376.6L298.2 299.2Z" fill="#a13793" stroke="#a13793"></path><path d="M227.3 351.6L255.7 340.6L245.3 321.2Z" fill="#3a3c7f" stroke="#3a3c7f"></path><path d="M298.2 299.2L319.2 225.3L254.7 254.7Z" fill="#3a3c7f" stroke="#3a3c7f"></path><path d="M173.8 296.2L227.3 351.6L217.3 282.7Z" fill="#203973" stroke="#203973"></path><path d="M133.4 284.7L158.4 310.2L173.8 296.2Z" fill="#543d88" stroke="#543d88"></path><path d="M173.8 296.2L158.4 310.2L227.3 351.6Z" fill="#203973" stroke="#203973"></path><path d="M203.3 152.4L203.8 162.8L268.7 140.4Z" fill="#543d88" stroke="#543d88"></path><path d="M245.3 196.8L203.8 162.8L235.3 241.3Z" fill="#ba3290" stroke="#ba3290"></path><path d="M379.6 297.2L342.2 275.7L298.2 299.2Z" fill="#e72681" stroke="#e72681"></path><path d="M298.2 299.2L342.2 275.7L319.2 225.3Z" fill="#543d88" stroke="#543d88"></path><path d="M117.4 239.3L133.4 284.7L159.8 260.7Z" fill="#3a3c7f" stroke="#3a3c7f"></path><path d="M159.8 260.7L133.4 284.7L173.8 296.2Z" fill="#e72681" stroke="#e72681"></path><path d="M268.7 140.4L203.8 162.8L245.3 196.8Z" fill="#e72681" stroke="#e72681"></path><path d="M112.4 183.8L117.4 239.3L173.8 252.3Z" fill="#543d88" stroke="#543d88"></path><path d="M161.8 153.4L173.8 252.3L203.8 162.8Z" fill="#ba3290" stroke="#ba3290"></path><path d="M319.2 225.3L342.2 196.8L273.7 189.8Z" fill="#a13793" stroke="#a13793"></path><path d="M273.7 189.8L268.7 140.4L245.3 196.8Z" fill="#a13793" stroke="#a13793"></path><path d="M387.6 250.3L342.2 196.8L319.2 225.3Z" fill="#fb2576" stroke="#fb2576"></path><path d="M302.2 136.4L268.7 140.4L273.7 189.8Z" fill="#ba3290" stroke="#ba3290"></path><path d="M227.3 351.6L292.2 376.6L255.7 340.6Z" fill="#fb2576" stroke="#fb2576"></path><path d="M255.7 340.6L292.2 376.6L264.7 315.2Z" fill="#6d3d8e" stroke="#6d3d8e"></path><path d="M161.8 108.9L161.8 153.4L203.3 152.4Z" fill="#a13793" stroke="#a13793"></path><path d="M203.3 152.4L161.8 153.4L203.8 162.8Z" fill="#003566" stroke="#003566"></path><path d="M151.4 383.1L169.8 372.6L113.4 355.6Z" fill="#e72681" stroke="#e72681"></path><path d="M158.4 310.2L169.8 372.6L227.3 351.6Z" fill="#a13793" stroke="#a13793"></path><path d="M227.3 351.6L257.7 427.1L292.2 376.6Z" fill="#a13793" stroke="#a13793"></path><path d="M92.9 220.3L101.9 255.7L117.4 239.3Z" fill="#e72681" stroke="#e72681"></path><path d="M117.4 239.3L101.9 255.7L133.4 284.7Z" fill="#6d3d8e" stroke="#6d3d8e"></path><path d="M113.4 355.6L169.8 372.6L158.4 310.2Z" fill="#203973" stroke="#203973"></path><path d="M342.2 196.8L302.2 136.4L273.7 189.8Z" fill="#e72681" stroke="#e72681"></path><path d="M161.8 153.4L112.4 183.8L173.8 252.3Z" fill="#ba3290" stroke="#ba3290"></path><path d="M340.6 383.6L379.6 297.2L298.2 299.2Z" fill="#e72681" stroke="#e72681"></path><path d="M342.2 275.7L387.6 250.3L319.2 225.3Z" fill="#d22b8a" stroke="#d22b8a"></path><path d="M112.4 183.8L92.9 220.3L117.4 239.3Z" fill="#6d3d8e" stroke="#6d3d8e"></path><path d="M388.6 274.7L387.6 250.3L342.2 275.7Z" fill="#543d88" stroke="#543d88"></path><path d="M342.2 196.8L365.6 128.4L302.2 136.4Z" fill="#203973" stroke="#203973"></path><path d="M113.4 355.6L158.4 310.2L133.4 284.7Z" fill="#a13793" stroke="#a13793"></path><path d="M169.8 372.6L177.8 401.1L227.3 351.6Z" fill="#d22b8a" stroke="#d22b8a"></path><path d="M387.6 250.3L375.6 197.8L342.2 196.8Z" fill="#fb2576" stroke="#fb2576"></path><path d="M379.6 297.2L388.6 274.7L342.2 275.7Z" fill="#fb2576" stroke="#fb2576"></path><path d="M302.2 136.4L281.7 112.9L268.7 140.4Z" fill="#a13793" stroke="#a13793"></path><path d="M268.7 140.4L217.3 101.9L203.3 152.4Z" fill="#d22b8a" stroke="#d22b8a"></path><path d="M335.2 90.9L281.7 112.9L302.2 136.4Z" fill="#ba3290" stroke="#ba3290"></path><path d="M151.4 383.1L177.8 401.1L169.8 372.6Z" fill="#873b92" stroke="#873b92"></path><path d="M99.9 360.6L113.4 355.6L76.9 343.2Z" fill="#003566" stroke="#003566"></path><path d="M113.4 355.6L133.4 284.7L76.9 343.2Z" fill="#fb2576" stroke="#fb2576"></path><path d="M281.7 112.9L217.3 101.9L268.7 140.4Z" fill="#a13793" stroke="#a13793"></path><path d="M161.8 153.4L132.4 129.4L112.4 183.8Z" fill="#873b92" stroke="#873b92"></path><path d="M387.6 250.3L397.1 249.7L375.6 197.8Z" fill="#3a3c7f" stroke="#3a3c7f"></path><path d="M388.6 274.7L397.1 249.7L387.6 250.3Z" fill="#543d88" stroke="#543d88"></path><path d="M321.2 400.1L340.6 383.6L292.2 376.6Z" fill="#203973" stroke="#203973"></path><path d="M292.2 376.6L340.6 383.6L298.2 299.2Z" fill="#6d3d8e" stroke="#6d3d8e"></path><path d="M270.7 435.5L321.2 400.1L292.2 376.6Z" fill="#a13793" stroke="#a13793"></path><path d="M161.8 108.9L132.4 129.4L161.8 153.4Z" fill="#a13793" stroke="#a13793"></path><path d="M112.4 183.8L76.9 162.8L92.9 220.3Z" fill="#3a3c7f" stroke="#3a3c7f"></path><path d="M217.3 101.9L161.8 108.9L203.3 152.4Z" fill="#3a3c7f" stroke="#3a3c7f"></path><path d="M246.3 430.1L257.7 427.1L227.3 351.6Z" fill="#a13793" stroke="#a13793"></path><path d="M76.9 343.2L133.4 284.7L101.9 255.7Z" fill="#fb2576" stroke="#fb2576"></path><path d="M113.4 355.6L99.9 360.6L151.4 383.1Z" fill="#e72681" stroke="#e72681"></path><path d="M119.4 461.5L190.8 429.5L177.8 401.1Z" fill="#543d88" stroke="#543d88"></path><path d="M177.8 401.1L246.3 430.1L227.3 351.6Z" fill="#543d88" stroke="#543d88"></path><path d="M119.4 461.5L177.8 401.1L151.4 383.1Z" fill="#543d88" stroke="#543d88"></path><path d="M177.8 401.1L190.8 429.5L246.3 430.1Z" fill="#e72681" stroke="#e72681"></path><path d="M251.3 448.5L257.7 427.1L246.3 430.1Z" fill="#873b92" stroke="#873b92"></path><path d="M251.3 448.5L270.7 435.5L257.7 427.1Z" fill="#6d3d8e" stroke="#6d3d8e"></path><path d="M257.7 427.1L270.7 435.5L292.2 376.6Z" fill="#873b92" stroke="#873b92"></path><path d="M43.5 280.7L76.9 343.2L101.9 255.7Z" fill="#6d3d8e" stroke="#6d3d8e"></path><path d="M390.1 137.4L365.6 128.4L375.6 197.8Z" fill="#ba3290" stroke="#ba3290"></path><path d="M375.6 197.8L365.6 128.4L342.2 196.8Z" fill="#fb2576" stroke="#fb2576"></path><path d="M104.9 112.4L76.9 162.8L132.4 129.4Z" fill="#e72681" stroke="#e72681"></path><path d="M132.4 129.4L76.9 162.8L112.4 183.8Z" fill="#6d3d8e" stroke="#6d3d8e"></path><path d="M32.5 239.3L43.5 280.7L101.9 255.7Z" fill="#d22b8a" stroke="#d22b8a"></path><path d="M434.5 212.3L421.1 218.3L473.5 273.7Z" fill="#203973" stroke="#203973"></path><path d="M397.1 249.7L421.1 218.3L375.6 197.8Z" fill="#3a3c7f" stroke="#3a3c7f"></path><path d="M473.5 273.7L397.1 249.7L388.6 274.7Z" fill="#d22b8a" stroke="#d22b8a"></path><path d="M422.1 318.2L388.6 274.7L379.6 297.2Z" fill="#3a3c7f" stroke="#3a3c7f"></path><path d="M190.8 429.5L251.3 448.5L246.3 430.1Z" fill="#6d3d8e" stroke="#6d3d8e"></path><path d="M158.4 47.5L114.4 110.9L161.8 108.9Z" fill="#fb2576" stroke="#fb2576"></path><path d="M161.8 108.9L114.4 110.9L132.4 129.4Z" fill="#a13793" stroke="#a13793"></path><path d="M392.1 385.1L379.6 297.2L340.6 383.6Z" fill="#203973" stroke="#203973"></path><path d="M392.1 385.1L422.1 318.2L379.6 297.2Z" fill="#203973" stroke="#203973"></path><path d="M365.6 128.4L335.2 90.9L302.2 136.4Z" fill="#ba3290" stroke="#ba3290"></path><path d="M281.7 112.9L230.3 61.5L217.3 101.9Z" fill="#d22b8a" stroke="#d22b8a"></path><path d="M217.3 101.9L158.4 47.5L161.8 108.9Z" fill="#203973" stroke="#203973"></path><path d="M32.5 239.3L101.9 255.7L92.9 220.3Z" fill="#ba3290" stroke="#ba3290"></path><path d="M432.1 175.8L390.1 137.4L375.6 197.8Z" fill="#fb2576" stroke="#fb2576"></path><path d="M385.6 93.9L343.2 64.5L335.2 90.9Z" fill="#a13793" stroke="#a13793"></path><path d="M114.4 110.9L104.9 112.4L132.4 129.4Z" fill="#a13793" stroke="#a13793"></path><path d="M284.7 37.5L230.3 61.5L281.7 112.9Z" fill="#543d88" stroke="#543d88"></path><path d="M52.5 80.9L74.9 106.9L89.9 36.5Z" fill="#d22b8a" stroke="#d22b8a"></path><path d="M386.6 413.1L340.6 383.6L321.2 400.1Z" fill="#e72681" stroke="#e72681"></path><path d="M386.6 413.1L392.1 385.1L340.6 383.6Z" fill="#a13793" stroke="#a13793"></path><path d="M386.6 413.1L321.2 400.1L332.2 469.5Z" fill="#a13793" stroke="#a13793"></path><path d="M473.5 273.7L421.1 218.3L397.1 249.7Z" fill="#003566" stroke="#003566"></path><path d="M421.1 218.3L432.1 175.8L375.6 197.8Z" fill="#003566" stroke="#003566"></path><path d="M21.5 205.8L92.9 220.3L76.9 162.8Z" fill="#543d88" stroke="#543d88"></path><path d="M21.5 205.8L32.5 239.3L92.9 220.3Z" fill="#a13793" stroke="#a13793"></path><path d="M74.9 106.9L57.5 153.4L76.9 162.8Z" fill="#ba3290" stroke="#ba3290"></path><path d="M434.5 212.3L432.1 175.8L421.1 218.3Z" fill="#003566" stroke="#003566"></path><path d="M332.2 469.5L321.2 400.1L270.7 435.5Z" fill="#003566" stroke="#003566"></path><path d="M392.1 385.1L416.1 387.6L422.1 318.2Z" fill="#d22b8a" stroke="#d22b8a"></path><path d="M54.5 388.6L99.9 360.6L76.9 343.2Z" fill="#e72681" stroke="#e72681"></path><path d="M54.5 388.6L72.9 400.1L99.9 360.6Z" fill="#e72681" stroke="#e72681"></path><path d="M99.9 360.6L72.9 400.1L151.4 383.1Z" fill="#003566" stroke="#003566"></path><path d="M190.8 429.5L238.3 500L251.3 448.5Z" fill="#203973" stroke="#203973"></path><path d="M54.5 388.6L76.9 343.2L24.5 332.2Z" fill="#873b92" stroke="#873b92"></path><path d="M386.6 413.1L416.1 387.6L392.1 385.1Z" fill="#003566" stroke="#003566"></path><path d="M422.1 318.2L473.5 273.7L388.6 274.7Z" fill="#203973" stroke="#203973"></path><path d="M385.6 93.9L335.2 90.9L365.6 128.4Z" fill="#3a3c7f" stroke="#3a3c7f"></path><path d="M335.2 90.9L284.7 37.5L281.7 112.9Z" fill="#ba3290" stroke="#ba3290"></path><path d="M385.6 93.9L365.6 128.4L390.1 137.4Z" fill="#873b92" stroke="#873b92"></path><path d="M416.1 387.6L448.5 327.2L422.1 318.2Z" fill="#a13793" stroke="#a13793"></path><path d="M434.5 212.3L454.5 184.8L432.1 175.8Z" fill="#203973" stroke="#203973"></path><path d="M421.1 96.9L385.6 93.9L390.1 137.4Z" fill="#873b92" stroke="#873b92"></path><path d="M57.5 153.4L21.5 205.8L76.9 162.8Z" fill="#d22b8a" stroke="#d22b8a"></path><path d="M24.5 332.2L76.9 343.2L43.5 280.7Z" fill="#203973" stroke="#203973"></path><path d="M104.9 112.4L74.9 106.9L76.9 162.8Z" fill="#e72681" stroke="#e72681"></path><path d="M0 172.8L0 204.3L21.5 205.8Z" fill="#203973" stroke="#203973"></path><path d="M74.9 106.9L104.9 112.4L89.9 36.5Z" fill="#873b92" stroke="#873b92"></path><path d="M24.5 332.2L43.5 280.7L0 297.7Z" fill="#ba3290" stroke="#ba3290"></path><path d="M0 292.2L43.5 280.7L32.5 239.3Z" fill="#d22b8a" stroke="#d22b8a"></path><path d="M200.8 21.5L158.4 47.5L230.3 61.5Z" fill="#003566" stroke="#003566"></path><path d="M230.3 61.5L158.4 47.5L217.3 101.9Z" fill="#d22b8a" stroke="#d22b8a"></path><path d="M343.2 64.5L284.7 37.5L335.2 90.9Z" fill="#e72681" stroke="#e72681"></path><path d="M500 216.3L454.5 184.8L434.5 212.3Z" fill="#3a3c7f" stroke="#3a3c7f"></path><path d="M432.1 175.8L428.5 111.4L390.1 137.4Z" fill="#ba3290" stroke="#ba3290"></path><path d="M304.2 500L332.2 469.5L270.7 435.5Z" fill="#6d3d8e" stroke="#6d3d8e"></path><path d="M469.5 385.1L455.5 371.6L416.1 387.6Z" fill="#a13793" stroke="#a13793"></path><path d="M76.9 476.5L119.4 461.5L72.9 400.1Z" fill="#3a3c7f" stroke="#3a3c7f"></path><path d="M72.9 400.1L119.4 461.5L151.4 383.1Z" fill="#ba3290" stroke="#ba3290"></path><path d="M251.3 448.5L257.7 500L270.7 435.5Z" fill="#a13793" stroke="#a13793"></path><path d="M448.5 327.2L473.5 273.7L422.1 318.2Z" fill="#543d88" stroke="#543d88"></path><path d="M0 204.3L0 292.2L32.5 239.3Z" fill="#203973" stroke="#203973"></path><path d="M0 351.6L37.5 400.1L54.5 388.6Z" fill="#ba3290" stroke="#ba3290"></path><path d="M0 292.2L0 297.7L43.5 280.7Z" fill="#d22b8a" stroke="#d22b8a"></path><path d="M231.3 0L200.8 21.5L230.3 61.5Z" fill="#e72681" stroke="#e72681"></path><path d="M159.8 500L238.3 500L190.8 429.5Z" fill="#ba3290" stroke="#ba3290"></path><path d="M238.3 500L257.7 500L251.3 448.5Z" fill="#003566" stroke="#003566"></path><path d="M416.1 56.5L353.6 30.5L343.2 64.5Z" fill="#203973" stroke="#203973"></path><path d="M454.5 184.8L428.5 111.4L432.1 175.8Z" fill="#003566" stroke="#003566"></path><path d="M0 172.8L21.5 205.8L57.5 153.4Z" fill="#e72681" stroke="#e72681"></path><path d="M21.5 205.8L0 204.3L32.5 239.3Z" fill="#d22b8a" stroke="#d22b8a"></path><path d="M54.5 388.6L37.5 400.1L72.9 400.1Z" fill="#543d88" stroke="#543d88"></path><path d="M0 351.6L54.5 388.6L24.5 332.2Z" fill="#873b92" stroke="#873b92"></path><path d="M428.5 111.4L421.1 96.9L390.1 137.4Z" fill="#873b92" stroke="#873b92"></path><path d="M343.2 64.5L353.6 30.5L284.7 37.5Z" fill="#873b92" stroke="#873b92"></path><path d="M431.1 432.5L416.1 387.6L386.6 413.1Z" fill="#a13793" stroke="#a13793"></path><path d="M416.1 387.6L455.5 371.6L448.5 327.2Z" fill="#6d3d8e" stroke="#6d3d8e"></path><path d="M500 300.2L500 284.7L473.5 273.7Z" fill="#873b92" stroke="#873b92"></path><path d="M332.2 469.5L388.6 453.5L386.6 413.1Z" fill="#203973" stroke="#203973"></path><path d="M365.6 500L388.6 453.5L332.2 469.5Z" fill="#e72681" stroke="#e72681"></path><path d="M257.7 500L304.2 500L270.7 435.5Z" fill="#6d3d8e" stroke="#6d3d8e"></path><path d="M0 128.4L0 172.8L57.5 153.4Z" fill="#e72681" stroke="#e72681"></path><path d="M145.4 500L159.8 500L119.4 461.5Z" fill="#d22b8a" stroke="#d22b8a"></path><path d="M119.4 461.5L159.8 500L190.8 429.5Z" fill="#e72681" stroke="#e72681"></path><path d="M0 297.7L0 351.6L24.5 332.2Z" fill="#003566" stroke="#003566"></path><path d="M416.1 56.5L343.2 64.5L385.6 93.9Z" fill="#a13793" stroke="#a13793"></path><path d="M284.7 37.5L231.3 0L230.3 61.5Z" fill="#ba3290" stroke="#ba3290"></path><path d="M89.9 36.5L104.9 112.4L114.4 110.9Z" fill="#873b92" stroke="#873b92"></path><path d="M74.9 106.9L0 128.4L57.5 153.4Z" fill="#6d3d8e" stroke="#6d3d8e"></path><path d="M89.9 36.5L114.4 110.9L158.4 47.5Z" fill="#fb2576" stroke="#fb2576"></path><path d="M70.9 500L145.4 500L119.4 461.5Z" fill="#e72681" stroke="#e72681"></path><path d="M276.7 0L231.3 0L284.7 37.5Z" fill="#ba3290" stroke="#ba3290"></path><path d="M149.4 0L89.9 36.5L158.4 47.5Z" fill="#e72681" stroke="#e72681"></path><path d="M457.5 437.5L431.1 432.5L414.1 500Z" fill="#6d3d8e" stroke="#6d3d8e"></path><path d="M388.6 453.5L431.1 432.5L386.6 413.1Z" fill="#3a3c7f" stroke="#3a3c7f"></path><path d="M316.2 0L276.7 0L284.7 37.5Z" fill="#3a3c7f" stroke="#3a3c7f"></path><path d="M500 300.2L448.5 327.2L500 375.6Z" fill="#3a3c7f" stroke="#3a3c7f"></path><path d="M500 300.2L473.5 273.7L448.5 327.2Z" fill="#a13793" stroke="#a13793"></path><path d="M473.5 273.7L500 216.3L434.5 212.3Z" fill="#6d3d8e" stroke="#6d3d8e"></path><path d="M500 128.4L467.5 92.9L428.5 111.4Z" fill="#a13793" stroke="#a13793"></path><path d="M431.1 432.5L469.5 385.1L416.1 387.6Z" fill="#873b92" stroke="#873b92"></path><path d="M500 375.6L448.5 327.2L455.5 371.6Z" fill="#ba3290" stroke="#ba3290"></path><path d="M500 284.7L500 216.3L473.5 273.7Z" fill="#6d3d8e" stroke="#6d3d8e"></path><path d="M467.5 92.9L416.1 56.5L421.1 96.9Z" fill="#873b92" stroke="#873b92"></path><path d="M159.8 0L158.4 47.5L200.8 21.5Z" fill="#d22b8a" stroke="#d22b8a"></path><path d="M22.5 436.5L72.9 400.1L37.5 400.1Z" fill="#6d3d8e" stroke="#6d3d8e"></path><path d="M22.5 436.5L76.9 476.5L72.9 400.1Z" fill="#ba3290" stroke="#ba3290"></path><path d="M421.1 96.9L416.1 56.5L385.6 93.9Z" fill="#ba3290" stroke="#ba3290"></path><path d="M467.5 92.9L421.1 96.9L428.5 111.4Z" fill="#a13793" stroke="#a13793"></path><path d="M500 216.3L500 194.8L454.5 184.8Z" fill="#543d88" stroke="#543d88"></path><path d="M231.3 0L159.8 0L200.8 21.5Z" fill="#203973" stroke="#203973"></path><path d="M353.6 30.5L316.2 0L284.7 37.5Z" fill="#003566" stroke="#003566"></path><path d="M352.6 0L316.2 0L353.6 30.5Z" fill="#a13793" stroke="#a13793"></path><path d="M0 77.9L0 128.4L52.5 80.9Z" fill="#fb2576" stroke="#fb2576"></path><path d="M52.5 80.9L0 128.4L74.9 106.9Z" fill="#543d88" stroke="#543d88"></path><path d="M304.2 500L365.6 500L332.2 469.5Z" fill="#203973" stroke="#203973"></path><path d="M159.8 0L149.4 0L158.4 47.5Z" fill="#543d88" stroke="#543d88"></path><path d="M0 421.1L22.5 436.5L37.5 400.1Z" fill="#d22b8a" stroke="#d22b8a"></path><path d="M414.1 500L431.1 432.5L388.6 453.5Z" fill="#fb2576" stroke="#fb2576"></path><path d="M431.1 432.5L457.5 437.5L469.5 385.1Z" fill="#203973" stroke="#203973"></path><path d="M469.5 385.1L500 375.6L455.5 371.6Z" fill="#873b92" stroke="#873b92"></path><path d="M385.1 0L352.6 0L353.6 30.5Z" fill="#d22b8a" stroke="#d22b8a"></path><path d="M500 128.4L428.5 111.4L454.5 184.8Z" fill="#a13793" stroke="#a13793"></path><path d="M416.1 56.5L385.1 0L353.6 30.5Z" fill="#203973" stroke="#203973"></path><path d="M0 351.6L0 421.1L37.5 400.1Z" fill="#d22b8a" stroke="#d22b8a"></path><path d="M59.5 500L70.9 500L76.9 476.5Z" fill="#3a3c7f" stroke="#3a3c7f"></path><path d="M500 418.1L500 375.6L469.5 385.1Z" fill="#e72681" stroke="#e72681"></path><path d="M0 421.1L0 429.5L22.5 436.5Z" fill="#ba3290" stroke="#ba3290"></path><path d="M59.5 500L76.9 476.5L22.5 436.5Z" fill="#6d3d8e" stroke="#6d3d8e"></path><path d="M76.9 476.5L70.9 500L119.4 461.5Z" fill="#ba3290" stroke="#ba3290"></path><path d="M500 194.8L500 128.4L454.5 184.8Z" fill="#543d88" stroke="#543d88"></path><path d="M463.5 33.5L416.1 56.5L467.5 92.9Z" fill="#a13793" stroke="#a13793"></path><path d="M463.5 33.5L385.1 0L416.1 56.5Z" fill="#3a3c7f" stroke="#3a3c7f"></path><path d="M25.5 41.5L52.5 80.9L89.9 36.5Z" fill="#203973" stroke="#203973"></path><path d="M25.5 41.5L0 77.9L52.5 80.9Z" fill="#3a3c7f" stroke="#3a3c7f"></path><path d="M365.6 500L414.1 500L388.6 453.5Z" fill="#ba3290" stroke="#ba3290"></path><path d="M0 500L59.5 500L22.5 436.5Z" fill="#6d3d8e" stroke="#6d3d8e"></path><path d="M149.4 0L79.9 0L89.9 36.5Z" fill="#e72681" stroke="#e72681"></path><path d="M62.5 0L25.5 41.5L89.9 36.5Z" fill="#d22b8a" stroke="#d22b8a"></path><path d="M500 439.5L500 418.1L457.5 437.5Z" fill="#003566" stroke="#003566"></path><path d="M457.5 437.5L500 418.1L469.5 385.1Z" fill="#6d3d8e" stroke="#6d3d8e"></path><path d="M79.9 0L62.5 0L89.9 36.5Z" fill="#fb2576" stroke="#fb2576"></path><path d="M478.5 500L500 439.5L457.5 437.5Z" fill="#ba3290" stroke="#ba3290"></path><path d="M0 0L0 45.5L25.5 41.5Z" fill="#ba3290" stroke="#ba3290"></path><path d="M25.5 41.5L0 45.5L0 77.9Z" fill="#873b92" stroke="#873b92"></path><path d="M500 63.5L463.5 33.5L467.5 92.9Z" fill="#3a3c7f" stroke="#3a3c7f"></path><path d="M500 128.4L500 65.9L467.5 92.9Z" fill="#003566" stroke="#003566"></path><path d="M500 65.9L500 63.5L467.5 92.9Z" fill="#873b92" stroke="#873b92"></path><path d="M0 429.5L0 500L22.5 436.5Z" fill="#d22b8a" stroke="#d22b8a"></path><path d="M414.1 500L478.5 500L457.5 437.5Z" fill="#543d88" stroke="#543d88"></path><path d="M62.5 0L0 0L25.5 41.5Z" fill="#003566" stroke="#003566"></path><path d="M500 0L475.5 0L463.5 33.5Z" fill="#3a3c7f" stroke="#3a3c7f"></path><path d="M463.5 33.5L475.5 0L385.1 0Z" fill="#ba3290" stroke="#ba3290"></path><path d="M478.5 500L500 500L500 439.5Z" fill="#543d88" stroke="#543d88"></path><path d="M500 63.5L500 0L463.5 33.5Z" fill="#d22b8a" stroke="#d22b8a"></path></g></svg>